<?xml version="1.0" encoding="UTF-8" standalone="no"?>
<!-- Created with Inkscape (http://www.inkscape.org/) -->

<svg
   xmlns:dc="http://purl.org/dc/elements/1.1/"
   xmlns:cc="http://creativecommons.org/ns#"
   xmlns:rdf="http://www.w3.org/1999/02/22-rdf-syntax-ns#"
   xmlns:svg="http://www.w3.org/2000/svg"
   xmlns="http://www.w3.org/2000/svg"
   xmlns:xlink="http://www.w3.org/1999/xlink"
   xmlns:sodipodi="http://sodipodi.sourceforge.net/DTD/sodipodi-0.dtd"
   xmlns:inkscape="http://www.inkscape.org/namespaces/inkscape"
   width="412.12"
   height="89.097443"
   id="svg2"
   version="1.1"
   inkscape:version="0.48.4 r9939"
   sodipodi:docname="logo_sealious.svg">
  <defs
     id="defs4">
    <linearGradient
       inkscape:collect="always"
       id="linearGradient3962">
      <stop
         style="stop-color:#000000;stop-opacity:1;"
         offset="0"
         id="stop3964" />
      <stop
         style="stop-color:#000000;stop-opacity:0;"
         offset="1"
         id="stop3966" />
    </linearGradient>
    <linearGradient
       inkscape:collect="always"
       xlink:href="#linearGradient3962"
       id="linearGradient3970"
       x1="695.30212"
       y1="-725.88995"
       x2="984.98114"
       y2="-725.88995"
       gradientUnits="userSpaceOnUse" />
  </defs>
  <sodipodi:namedview
     id="base"
     pagecolor="#ffffff"
     bordercolor="#666666"
     borderopacity="1.0"
     inkscape:pageopacity="0.0"
     inkscape:pageshadow="2"
     inkscape:zoom="0.98994948"
     inkscape:cx="361.20049"
     inkscape:cy="-105.66066"
     inkscape:document-units="px"
     inkscape:current-layer="layer1"
     showgrid="false"
     inkscape:window-width="1280"
     inkscape:window-height="749"
     inkscape:window-x="0"
     inkscape:window-y="25"
     inkscape:window-maximized="1"
     fit-margin-top="0"
     fit-margin-left="0"
     fit-margin-right="0"
     fit-margin-bottom="0" />
  <metadata
     id="metadata7">
    <rdf:RDF>
      <cc:Work
         rdf:about="">
        <dc:format>image/svg+xml</dc:format>
        <dc:type
           rdf:resource="http://purl.org/dc/dcmitype/StillImage" />
        <dc:title />
      </cc:Work>
    </rdf:RDF>
  </metadata>
  <g
     inkscape:label="Layer 1"
     inkscape:groupmode="layer"
     id="layer1"
     transform="translate(-1620.238,487.54535)">
    <g
       id="g3969"
       transform="translate(11.0146,-2.5016344)">
      <path
         inkscape:export-ydpi="90"
         inkscape:export-xdpi="90"
         inkscape:export-filename="/home/arkadiusz/Desktop/path2996.png"
         sodipodi:nodetypes="ccczcccszsccc"
         inkscape:connector-curvature="0"
         id="path3044-79-8-1-4-7-9-1-5-7-1-7-8-14-0-8-3-9-4-9-7-84"
         d="m 1707.9206,-462.54142 c -17.4785,38.80745 5.0602,42.24185 0.7988,66.03844 -28.6926,-35.52209 -17.7746,-7.7056 -44.5292,-12.6362 -12.4288,-1.8239 -28.1051,-3.2986 -34.4242,-3.758 -6.3191,-0.4593 -11.1901,0.6438 -18.2848,16.9509 -2.3931,-5.1133 -4.9005,-18.1657 3.9625,-23.23439 -1.0501,-10.8754 2.6332,-16.08355 8.2078,-21.23005 1.4156,7.2566 -0.3296,14.48475 4.0892,17.63055 2.7116,1.9305 11.0751,-0.1884 18.8686,-4.0042 7.7934,-3.8157 19.5072,-16.22005 28.4218,-26.73715 6.3427,-7.4829 11.1681,-14.5467 12.8485,-18.639 4.9601,-14.9751 18.8579,-10.456 29.7358,-12.8832 5.9395,0.774 -2.7904,15.5334 -9.6948,22.5023 z"
         style="fill:#4d394b;fill-opacity:1;fill-rule:nonzero;stroke:none" />
      <g
         style="font-size:46.8049736px;font-style:normal;font-variant:normal;font-weight:normal;font-stretch:normal;line-height:125%;letter-spacing:0px;word-spacing:0px;fill:#394359;fill-opacity:1;stroke:none;font-family:Encode Sans;-inkscape-font-specification:Encode Sans"
         id="text3039-8-8-5-5-9-1">
        <path
           d="m 1751.6958,-431.90183 c 3.8755,1.17948 5.6447,3.03296 5.6447,6.15017 0,4.12819 -3.6227,6.65567 -9.8571,6.65567 -4.4652,0 -8.3407,-0.674 -11.2051,-1.68498 l -2.1905,-0.75824 c -0.4212,-0.1685 -0.7582,0 -0.9267,0.42124 l -1.1795,3.36996 c -0.1685,0.50549 0,0.84249 0.5055,1.01099 l 2.2747,0.75824 c 3.4542,1.26373 7.7509,1.93772 12.7216,1.93772 9.6886,0 15.3333,-4.38095 15.3333,-11.7106 0,-5.47618 -2.8645,-9.01464 -9.4359,-10.69962 l -9.7729,-2.78021 c -3.7912,-1.09524 -5.3919,-2.94872 -5.3919,-5.89743 0,-3.53845 3.2857,-5.89743 9.0146,-5.89743 2.9487,0 6.1502,0.42125 8.4249,1.09524 l 3.2015,0.92674 c 0.5055,0.1685 0.8425,0 1.011,-0.5055 l 0.9267,-3.2857 c 0.1685,-0.5055 0,-0.84249 -0.5055,-1.01099 l -3.2857,-1.01099 c -2.5275,-0.75824 -6.1502,-1.26373 -9.8571,-1.26373 -9.0989,0 -14.4066,4.1282 -14.4066,10.95236 0,5.56043 2.8645,8.84614 9.0989,10.44687 l 9.8571,2.78022"
           style="font-size:84.24895477px;font-weight:300;fill:#394359;font-family:Neris;-inkscape-font-specification:Neris Light"
           id="path3016" />
        <path
           d="m 1801.4659,-416.06303 c 0.5055,-0.0842 0.674,-0.42125 0.5897,-0.92674 l -1.0109,-3.36996 c -0.1685,-0.50549 -0.5055,-0.67399 -1.011,-0.58974 l -2.5275,0.75824 c -2.359,0.75824 -4.9707,1.09524 -7.8352,1.09524 -6.9084,0 -11.4578,-4.12821 -12.553,-11.20511 l 16.4285,-2.69597 c 7.5824,-1.26373 11.2894,-4.71795 11.2894,-10.61537 0,-7.83514 -5.729,-12.46884 -15.2491,-12.46884 -11.4578,0 -18.4505,8.08791 -18.4505,20.97799 0,12.97432 6.9084,21.06223 18.5347,21.06223 3.2015,0 6.1502,-0.33699 9.0989,-1.26373 l 2.696,-0.75824 m -24.7692,-18.87177 c 0.2528,-10.78385 4.9707,-16.09155 12.8058,-16.09155 6.2345,0 9.8572,2.78022 9.8572,7.49816 0,3.20146 -2.2748,5.13919 -6.7399,5.89743 l -15.9231,2.69596"
           style="font-size:84.24895477px;font-weight:300;fill:#394359;font-family:Neris;-inkscape-font-specification:Neris Light"
           id="path3018" />
        <path
           d="m 1816.2292,-453.89081 c -0.5055,0.1685 -0.674,0.50549 -0.5055,1.01099 l 0.9268,3.28571 c 0.1685,0.50549 0.5055,0.67399 1.0109,0.50549 l 2.9488,-0.84249 c 2.1062,-0.67399 4.7179,-1.01099 7.6666,-1.01099 7.2454,0 11.2894,4.12821 11.2894,11.28936 l 0,1.09524 -12.7216,0 c -9.6886,0.0842 -14.8278,5.05494 -14.8278,12.3846 0,7.49814 4.9707,12.13184 13.4798,12.13184 6.2344,0 10.5311,-1.85348 13.3956,-5.47618 0.8425,-0.92674 1.4322,-1.01098 1.685,0.0842 l 0.2527,3.7912 c 0.084,0.5055 0.337,0.75825 0.8425,0.75825 l 2.6117,0 c 0.5055,0 0.7583,-0.25275 0.7583,-0.75825 l 0,-24.0952 c 0,-10.19411 -6.403,-16.34429 -16.6813,-16.34429 -3.5385,0 -6.5715,0.50549 -9.0147,1.26373 l -3.1172,0.92674 m 23.337,20.05125 0,1.09524 c 0,8.76188 -4.9707,13.73258 -13.6484,13.73258 -5.3919,0 -8.4249,-2.78022 -8.4249,-7.49816 0,-4.38094 2.9488,-7.32966 9.3517,-7.32966 l 12.7216,0"
           style="font-size:84.24895477px;font-weight:300;fill:#394359;font-family:Neris;-inkscape-font-specification:Neris Light"
           id="path3020" />
        <path
           d="m 1862.8913,-473.68932 c 0,-0.50549 -0.2528,-0.75824 -0.7583,-0.75824 l -3.9597,0 c -0.5054,0 -0.7582,0.25275 -0.7582,0.75824 l 0,51.56036 c 0,5.13919 2.8645,8.0879 7.6667,8.0879 0.9267,0 1.8534,-0.16849 2.6959,-0.42124 0.4213,-0.1685 0.5898,-0.58974 0.4213,-1.01099 l -1.4323,-3.28571 c -0.1685,-0.42124 -0.5055,-0.58974 -0.9267,-0.42124 -0.2527,0.0843 -0.5055,0.0843 -0.7582,0.0843 -1.4323,0 -2.1905,-1.17949 -2.1905,-3.03297 l 0,-51.56036"
           style="font-size:84.24895477px;font-weight:300;fill:#394359;font-family:Neris;-inkscape-font-specification:Neris Light"
           id="path3022" />
        <path
           d="m 1881.5419,-474.8688 c -2.2747,0 -3.707,1.34798 -3.707,3.70695 0,2.35897 1.4323,3.70696 3.707,3.70696 2.2747,0 3.6227,-1.34799 3.6227,-3.70696 0,-2.35897 -1.348,-3.70695 -3.6227,-3.70695 m 3.6227,20.38825 c 0,-0.5055 -0.2527,-0.75824 -0.7582,-0.75824 l -8.5934,0 c -0.5055,0 -0.7583,0.25274 -0.7583,0.75824 l 0,3.4542 c 0,0.5055 0.2528,0.75824 0.7583,0.75824 l 3.8754,0 0,34.62632 c 0,0.5055 0.2528,0.75825 0.7583,0.75825 l 3.9597,0 c 0.5055,0 0.7582,-0.25275 0.7582,-0.75825 l 0,-38.83876"
           style="font-size:84.24895477px;font-weight:300;fill:#394359;font-family:Neris;-inkscape-font-specification:Neris Light"
           id="path3024" />
        <path
           d="m 1914.395,-456.08128 c -11.3736,0 -18.3662,8.08791 -18.3662,20.97799 0,12.97432 6.9926,21.06223 18.3662,21.06223 11.3736,0 18.3663,-8.08791 18.3663,-21.06223 0,-12.89008 -6.9927,-20.97799 -18.3663,-20.97799 m 0,5.05493 c 8.0879,0 12.9744,5.98169 12.9744,15.92306 0,10.02561 -4.8865,16.0073 -12.9744,16.0073 -8.0879,0 -12.8901,-5.98169 -12.8901,-16.0073 0,-9.94137 4.8022,-15.92306 12.8901,-15.92306"
           style="font-size:84.24895477px;font-weight:300;fill:#394359;font-family:Neris;-inkscape-font-specification:Neris Light"
           id="path3026" />
        <path
           d="m 1973.21,-415.64179 c 0,0.5055 0.2528,0.75825 0.7583,0.75825 l 2.6117,0 c 0.5055,0 0.7582,-0.25275 0.7582,-0.75825 l 0,-38.83876 c 0,-0.5055 -0.2527,-0.75824 -0.7582,-0.75824 l -3.9597,0 c -0.5055,0 -0.7583,0.25274 -0.7583,0.75824 l 0,18.45052 c 0,10.6996 -4.8864,16.93404 -13.227,16.93404 -6.2345,0 -9.9414,-4.38096 -9.9414,-11.71061 l 0,-23.67395 c 0,-0.5055 -0.2528,-0.75824 -0.7583,-0.75824 l -3.9597,0 c -0.5054,0 -0.7582,0.25274 -0.7582,0.75824 l 0,24.0952 c 0,10.10986 5.6447,16.34429 14.9121,16.34429 5.8131,0 10.2783,-2.27472 13.4798,-6.82416 0.5055,-0.67399 1.011,-0.67399 1.2637,0.0842 l 0.337,5.13918"
           style="font-size:84.24895477px;font-weight:300;fill:#394359;font-family:Neris;-inkscape-font-specification:Neris Light"
           id="path3028" />
        <path
           d="m 2008.2273,-431.90183 c 3.8755,1.17948 5.6447,3.03296 5.6447,6.15017 0,4.12819 -3.6227,6.65567 -9.8571,6.65567 -4.4652,0 -8.3407,-0.674 -11.2051,-1.68498 l -2.1905,-0.75824 c -0.4213,-0.1685 -0.7583,0 -0.9267,0.42124 l -1.1795,3.36996 c -0.1685,0.50549 0,0.84249 0.5055,1.01099 l 2.2747,0.75824 c 3.4542,1.26373 7.7509,1.93772 12.7216,1.93772 9.6886,0 15.3333,-4.38095 15.3333,-11.7106 0,-5.47618 -2.8645,-9.01464 -9.4359,-10.69962 l -9.7729,-2.78021 c -3.7912,-1.09524 -5.3919,-2.94872 -5.3919,-5.89743 0,-3.53845 3.2857,-5.89743 9.0146,-5.89743 2.9487,0 6.1502,0.42125 8.4249,1.09524 l 3.2015,0.92674 c 0.5055,0.1685 0.8425,0 1.011,-0.5055 l 0.9267,-3.2857 c 0.1685,-0.5055 0,-0.84249 -0.5055,-1.01099 l -3.2857,-1.01099 c -2.5275,-0.75824 -6.1502,-1.26373 -9.8571,-1.26373 -9.0989,0 -14.4066,4.1282 -14.4066,10.95236 0,5.56043 2.8645,8.84614 9.0989,10.44687 l 9.8571,2.78022"
           style="font-size:84.24895477px;font-weight:300;fill:#394359;font-family:Neris;-inkscape-font-specification:Neris Light"
           id="path3030" />
      </g>
    </g>
  </g>
</svg>
